<svg width="24" height="24" viewBox="0 0 24 24" fill="none" xmlns="http://www.w3.org/2000/svg">
<path d="M10.94 20.717C11.2213 20.9979 11.6025 21.1557 12 21.1557C12.3975 21.1557 12.7788 20.9979 13.06 20.717L18.719 15.061C19.0004 14.7796 19.1585 14.3979 19.1585 14C19.1585 13.602 19.0004 13.2204 18.719 12.939C18.4376 12.6576 18.056 12.4995 17.658 12.4995C17.2601 12.4995 16.8784 12.6576 16.597 12.939L13.5 16.035L13.5 4.49999C13.5 4.10216 13.342 3.72064 13.0607 3.43933C12.7794 3.15803 12.3979 2.99999 12 2.99999C11.6022 2.99999 11.2207 3.15803 10.9394 3.43933C10.6581 3.72064 10.5 4.10216 10.5 4.49999L10.5 16.035L7.40403 12.939C7.26469 12.7997 7.09928 12.6891 6.91724 12.6137C6.73519 12.5383 6.54008 12.4995 6.34303 12.4995C6.14598 12.4995 5.95087 12.5383 5.76882 12.6137C5.58677 12.6891 5.42136 12.7997 5.28203 12.939C5.1427 13.0783 5.03217 13.2437 4.95677 13.4258C4.88136 13.6078 4.84255 13.8029 4.84255 14C4.84255 14.197 4.88136 14.3922 4.95677 14.5742C5.03217 14.7562 5.1427 14.9217 5.28203 15.061L10.94 20.717Z" fill="black"/>
</svg>
