<svg width="43" height="43" viewBox="0 0 43 43" fill="none" xmlns="http://www.w3.org/2000/svg">
<path d="M37.8275 22.9961C37.985 25.7086 36.7425 28.3161 34.52 29.9086L35.8675 32.5161C36.27 33.3036 36.3225 34.2311 35.9725 35.0536C35.64 35.8761 34.9575 36.5236 34.1175 36.8036L32.735 37.2411C32.1593 37.435 31.5379 37.4466 30.9553 37.2744C30.3728 37.1021 29.8576 36.7544 29.48 36.2786L25.77 31.9036C24.2125 31.6411 22.7425 30.9761 21.5 29.9786C20.625 30.2411 19.75 30.3811 18.875 30.3811C17.335 30.3811 15.795 29.9086 14.5 28.9986C13.5725 29.2786 12.6275 29.4011 11.665 29.3836C10.2825 29.4011 8.91749 29.1211 7.63999 28.5961C6.41034 28.0474 5.35963 27.1642 4.60773 26.0472C3.85583 24.9302 3.43301 23.6243 3.38749 22.2786C3.24749 21.0186 3.45749 19.7411 3.99999 18.5861C3.49249 17.2736 3.43999 15.8386 3.87749 14.5086C4.52499 12.8461 5.74999 11.4636 7.27249 10.5886C8.28749 7.63107 11.14 5.65357 14.2725 5.86357C17.0725 3.23857 21.36 2.95857 24.475 5.21607C25.21 5.02357 25.98 4.91857 26.75 4.91857C29.13 4.86607 31.3875 5.91607 32.875 7.78857C36.445 8.71607 39 11.9011 39.14 15.6111C39.2275 17.5536 38.7025 19.4611 37.635 21.0886C37.7575 21.7186 37.8275 22.3486 37.8275 22.9961ZM29.0775 20.5286C30.075 20.6511 30.8625 21.4036 30.8625 22.4011C30.8625 22.8652 30.6781 23.3103 30.3499 23.6385C30.0217 23.9667 29.5766 24.1511 29.1125 24.1511H28.01C27.45 25.7261 26.47 27.1086 25.175 28.1586C25.6125 28.3161 26.0675 28.4036 26.5225 28.5261C35.5 28.4036 34.45 22.9261 34.45 22.8386C34.4035 21.6365 33.8815 20.5021 32.9987 19.6849C32.1159 18.8677 30.9446 18.4347 29.7425 18.4811C29.2784 18.4811 28.8332 18.2967 28.5051 17.9685C28.1769 17.6403 27.9925 17.1952 27.9925 16.7311C27.9925 16.2669 28.1769 15.8218 28.5051 15.4936C28.8332 15.1654 29.2784 14.9811 29.7425 14.9811C31.895 15.0336 33.96 15.8386 35.57 17.2561C35.6575 16.7486 35.71 16.2236 35.71 15.6986C35.605 13.5286 34.625 11.6386 30.6875 11.2711C28.5 6.09107 22.9875 8.96107 22.9875 10.5711C22.935 10.9736 23.355 11.8311 23.425 11.8836C23.8891 11.8836 24.3342 12.0679 24.6624 12.3961C24.9906 12.7243 25.175 13.1694 25.175 13.6336C25.175 14.5961 24.3875 15.3836 23.425 15.3836C22.4975 15.3486 21.6225 14.9986 20.9225 14.4036C20.0825 14.9461 19.12 15.2786 18.1225 15.3836C17.125 15.4711 16.3025 14.7711 16.25 13.8086C16.2178 13.58 16.2326 13.3472 16.2936 13.1245C16.3545 12.9019 16.4604 12.694 16.6046 12.5138C16.7488 12.3335 16.9284 12.1846 17.1322 12.0762C17.3361 11.9679 17.5599 11.9023 17.79 11.8836C18.07 11.8486 19.435 11.6386 19.435 10.5361C19.435 9.38107 19.8725 8.27857 20.625 7.40357C19.015 6.96607 17.2825 7.54357 15.5325 9.66107C12.3125 9.15357 11 9.59107 10.0375 13.0036C8.37499 13.8261 7.49999 14.4036 7.11499 16.1536C9.00499 15.7686 10.9475 15.9261 12.75 16.5911C13.625 16.9236 14.115 17.9036 13.7825 18.8486C13.45 19.7586 12.435 20.2136 11.525 19.8811C10.2475 19.3211 8.81249 19.2861 7.49999 19.7761C6.93999 20.2486 6.93999 21.2286 6.93999 21.9986C6.93999 23.2936 7.58749 24.5011 8.68999 25.2011C9.61749 25.6736 10.65 25.9186 11.6825 25.9011C11.42 25.4461 11.1925 24.9736 11 24.4836C10.8622 24.0339 10.9042 23.5484 11.1171 23.1291C11.3299 22.7098 11.6971 22.3894 12.1414 22.2352C12.5857 22.0811 13.0724 22.1053 13.4992 22.3026C13.926 22.5 14.2597 22.8552 14.43 23.2936C15.13 25.2886 16.915 26.6536 19.015 26.8811C21.4125 26.7586 23.5475 25.3411 24.5975 23.1536C25 20.7386 26.9425 20.5286 29.0775 20.5286ZM32.5775 33.6011L31.4925 31.3261L30.25 31.6061L32 33.7936L32.5775 33.6011ZM24.44 18.5336C24.4552 18.0865 24.2986 17.6506 24.0025 17.3154C23.7063 16.9802 23.293 16.7711 22.8475 16.7311C21.605 16.6611 20.3975 17.0811 19.47 17.9036C18.4725 18.9186 17.9475 20.3186 18 21.7361C18 22.2002 18.1844 22.6453 18.5126 22.9735C18.8407 23.3017 19.2859 23.4861 19.75 23.4861C20.7475 23.4861 21.5 22.6986 21.5 21.7361C21.5 21.2636 21.6225 20.7911 21.9025 20.4061C22.1125 20.2311 22.375 20.1436 22.655 20.1436C23.6175 20.1961 24.44 19.4786 24.44 18.5336Z" fill="#00A67E"/>
</svg>
