<svg width="41" height="41" viewBox="0 0 41 41" fill="none" xmlns="http://www.w3.org/2000/svg">
<path d="M25.5 17.6667L33.278 13.8733C33.5384 13.7464 33.8277 13.6865 34.1185 13.6992C34.4093 13.712 34.6919 13.7971 34.9396 13.9463C35.1872 14.0956 35.3916 14.3041 35.5335 14.5521C35.6753 14.8001 35.7498 15.0793 35.75 15.3633V26.6367C35.7498 26.9207 35.6753 27.1999 35.5335 27.4479C35.3916 27.6959 35.1872 27.9044 34.9396 28.0537C34.6919 28.2029 34.4093 28.288 34.1185 28.3008C33.8277 28.3135 33.5384 28.2536 33.278 28.1267L25.5 24.3333V17.6667ZM5 14.3333C5 13.4493 5.35997 12.6014 6.00072 11.9763C6.64147 11.3512 7.51051 11 8.41667 11H22.0833C22.9895 11 23.8585 11.3512 24.4993 11.9763C25.14 12.6014 25.5 13.4493 25.5 14.3333V27.6667C25.5 28.5507 25.14 29.3986 24.4993 30.0237C23.8585 30.6488 22.9895 31 22.0833 31H8.41667C7.51051 31 6.64147 30.6488 6.00072 30.0237C5.35997 29.3986 5 28.5507 5 27.6667V14.3333Z" stroke="black" stroke-width="2" stroke-linecap="round" stroke-linejoin="round"/>
</svg>
