<svg width="28" height="35" viewBox="0 0 28 35" fill="none" xmlns="http://www.w3.org/2000/svg">
<path d="M2.33684 17.1941C2.38001 14.5832 2.40217 13.2784 3.11617 12.1621C3.26066 11.9407 3.42198 11.7362 3.59801 11.5515C4.47534 10.6505 5.63501 10.6505 7.95317 10.6505C8.78151 10.6505 9.19567 10.6505 9.59001 10.5202C9.67167 10.4918 9.75334 10.4607 9.83384 10.4252C10.2188 10.2538 10.5653 9.95774 11.2572 9.36841C13.9848 7.03799 15.3498 5.87349 16.4943 6.37924C16.7137 6.47699 16.926 6.61724 17.1162 6.79008C18.1055 7.68966 18.1813 9.78632 18.3318 13.9768C18.3809 15.1826 18.4121 16.3893 18.4252 17.5964C18.4252 18.3345 18.3878 19.6647 18.3318 21.216C18.1802 25.4065 18.1055 27.5032 17.1162 28.4027C16.9263 28.5754 16.7168 28.7137 16.4943 28.8136C15.3487 29.3193 13.986 28.1548 11.256 25.8244C10.5653 25.2351 10.2188 24.939 9.83267 24.7676C9.75291 24.7318 9.67195 24.7002 9.59001 24.6727C9.19567 24.5423 8.78151 24.5423 7.95317 24.5423C5.63501 24.5423 4.47651 24.5423 3.59801 23.6413C3.42187 23.4573 3.26054 23.2533 3.11617 23.0322C2.40217 21.913 2.38117 20.6097 2.33684 17.9987C2.33236 17.7301 2.33236 17.4627 2.33684 17.1941Z" fill="#EC6565"/>
<path fill-rule="evenodd" clip-rule="evenodd" d="M22.7383 8.46172C22.8178 8.37472 22.9113 8.30877 23.0128 8.26808C23.1144 8.22739 23.2219 8.21284 23.3284 8.22537C23.4348 8.2379 23.538 8.27723 23.6312 8.34085C23.7245 8.40447 23.8058 8.49099 23.87 8.59489L23.2528 9.26214L23.8712 8.59631L23.8735 8.59914L23.877 8.60481L23.8852 8.61756C23.9171 8.66944 23.9478 8.72235 23.9773 8.77622C24.0322 8.87681 24.1068 9.02131 24.1943 9.20831C24.3682 9.58231 24.5898 10.132 24.808 10.8672C25.2467 12.342 25.6667 14.552 25.6667 17.5964C25.6667 20.6422 25.2467 22.8522 24.808 24.3256C24.5898 25.0622 24.3682 25.6105 24.1943 25.9859C24.1 26.1893 23.9968 26.3865 23.8852 26.5766L23.877 26.5894L23.8735 26.5936L23.8723 26.5965C23.8723 26.5965 23.8712 26.5979 23.2528 25.9306L23.8712 26.5979C23.807 26.702 23.7256 26.7887 23.6322 26.8525C23.5389 26.9162 23.4356 26.9557 23.329 26.9682C23.2224 26.9807 23.1148 26.9661 23.0131 26.9253C22.9114 26.8844 22.8178 26.8183 22.7383 26.7311C22.5733 26.5467 22.4709 26.294 22.4515 26.0227C22.4321 25.7513 22.4969 25.481 22.6333 25.2648L22.6683 25.2067C22.6987 25.1501 22.75 25.0509 22.8142 24.9135C23.0082 24.4853 23.1729 24.0385 23.3065 23.5776C23.6728 22.3436 24.0578 20.3858 24.0578 17.5964C24.0578 14.8056 23.6728 12.8506 23.3065 11.6152C23.1728 11.1547 23.0082 10.7084 22.8142 10.2807C22.7578 10.1578 22.6967 10.0382 22.631 9.92231M20.7165 12.5191C21.105 12.24 21.595 12.4199 21.8108 12.9242L21.812 12.9271L21.8143 12.9313L21.8178 12.9412L21.8295 12.9667L21.8575 13.0418C21.8785 13.1013 21.9065 13.1821 21.9392 13.2826C22.001 13.4881 22.0792 13.7785 22.155 14.161C22.3067 14.926 22.449 16.0551 22.449 17.5964C22.449 19.1391 22.3067 20.2682 22.155 21.0332C22.0792 21.4157 22.001 21.7061 21.938 21.9101C21.9049 22.0172 21.8683 22.1226 21.8283 22.2261L21.8178 22.2516L21.8143 22.2615L21.812 22.2657V22.2686C21.812 22.2686 21.8108 22.27 21.1073 21.7642L21.8108 22.27C21.595 22.7729 21.105 22.9542 20.7165 22.6751C20.3315 22.3975 20.1915 21.7713 20.3992 21.2712L20.4038 21.2571L20.4447 21.1366C20.482 21.0148 20.538 20.8108 20.5963 20.5161C20.713 19.9268 20.839 18.972 20.839 17.5978C20.839 16.2222 20.713 15.2674 20.5963 14.6795C20.5472 14.4267 20.4828 14.1785 20.4038 13.9371L20.3992 13.923C20.2977 13.6832 20.2741 13.406 20.3328 13.146C20.3916 12.8861 20.5285 12.6624 20.7165 12.5191Z" fill="#EC6565"/>
</svg>
