<svg width="34" height="35" viewBox="0 0 34 35" fill="none" xmlns="http://www.w3.org/2000/svg">
<path d="M17 31.3212C9.17575 31.3212 2.83333 24.9788 2.83333 17.1546C2.83333 9.33033 9.17575 2.98792 17 2.98792C24.8242 2.98792 31.1667 9.33033 31.1667 17.1546C31.1667 24.9788 24.8242 31.3212 17 31.3212ZM17 28.4879C20.0058 28.4879 22.8885 27.2939 25.0139 25.1685C27.1393 23.043 28.3333 20.1604 28.3333 17.1546C28.3333 14.1488 27.1393 11.2661 25.0139 9.1407C22.8885 7.01529 20.0058 5.82125 17 5.82125C13.9942 5.82125 11.1115 7.01529 8.98612 9.1407C6.86071 11.2661 5.66666 14.1488 5.66666 17.1546C5.66666 20.1604 6.86071 23.043 8.98612 25.1685C11.1115 27.2939 13.9942 28.4879 17 28.4879ZM11.3333 18.5712H22.6667C22.6667 20.0741 22.0696 21.5155 21.0069 22.5782C19.9442 23.6409 18.5029 24.2379 17 24.2379C15.4971 24.2379 14.0558 23.6409 12.9931 22.5782C11.9304 21.5155 11.3333 20.0741 11.3333 18.5712ZM11.3333 15.7379C10.7697 15.7379 10.2292 15.514 9.83073 15.1155C9.43221 14.717 9.20833 14.1765 9.20833 13.6129C9.20833 13.0493 9.43221 12.5088 9.83073 12.1103C10.2292 11.7118 10.7697 11.4879 11.3333 11.4879C11.8969 11.4879 12.4374 11.7118 12.8359 12.1103C13.2344 12.5088 13.4583 13.0493 13.4583 13.6129C13.4583 14.1765 13.2344 14.717 12.8359 15.1155C12.4374 15.514 11.8969 15.7379 11.3333 15.7379ZM22.6667 15.7379C22.1031 15.7379 21.5626 15.514 21.1641 15.1155C20.7655 14.717 20.5417 14.1765 20.5417 13.6129C20.5417 13.0493 20.7655 12.5088 21.1641 12.1103C21.5626 11.7118 22.1031 11.4879 22.6667 11.4879C23.2302 11.4879 23.7707 11.7118 24.1693 12.1103C24.5678 12.5088 24.7917 13.0493 24.7917 13.6129C24.7917 14.1765 24.5678 14.717 24.1693 15.1155C23.7707 15.514 23.2302 15.7379 22.6667 15.7379Z" fill="#EC6565"/>
</svg>
