<svg width="40" height="46" viewBox="0 0 40 46" fill="none" xmlns="http://www.w3.org/2000/svg">
<path d="M11.5 36.7181C10.7208 36.7181 10.0536 36.4405 9.49824 35.8851C8.94291 35.3298 8.66571 34.663 8.66666 33.8848V19.7181C8.66666 18.939 8.94433 18.2717 9.49966 17.7164C10.055 17.1611 10.7218 16.8839 11.5 16.8848H12.9167V14.0515C12.9167 12.0918 13.6075 10.421 14.9892 9.03931C16.371 7.65758 18.0412 6.9672 20 6.96814C21.9597 6.96814 23.6304 7.659 25.0122 9.04072C26.3939 10.4224 27.0843 12.0927 27.0833 14.0515V16.8848H28.5C29.2792 16.8848 29.9464 17.1625 30.5017 17.7178C31.0571 18.2731 31.3343 18.9399 31.3333 19.7181V33.8848C31.3333 34.664 31.0557 35.3312 30.5003 35.8866C29.945 36.4419 29.2782 36.7191 28.5 36.7181H11.5ZM20 29.6348C20.7792 29.6348 21.4464 29.3571 22.0017 28.8018C22.5571 28.2465 22.8343 27.5797 22.8333 26.8015C22.8333 26.0223 22.5557 25.3551 22.0003 24.7997C21.445 24.2444 20.7782 23.9672 20 23.9681C19.2208 23.9681 18.5536 24.2458 17.9982 24.8011C17.4429 25.3565 17.1657 26.0233 17.1667 26.8015C17.1667 27.5806 17.4443 28.2479 17.9997 28.8032C18.555 29.3586 19.2218 29.6358 20 29.6348ZM15.75 16.8848H24.25V14.0515C24.25 12.8709 23.8368 11.8674 23.0104 11.0411C22.184 10.2147 21.1805 9.80147 20 9.80147C18.8194 9.80147 17.816 10.2147 16.9896 11.0411C16.1632 11.8674 15.75 12.8709 15.75 14.0515V16.8848Z" fill="black"/>
</svg>
