<svg width="41" height="42" viewBox="0 0 41 42" fill="none" xmlns="http://www.w3.org/2000/svg">
<path d="M20.5 4.01312C21.8592 4.01312 23.1628 4.55308 24.1239 5.5142C25.0851 6.47532 25.625 7.77889 25.625 9.13812V19.3881C25.625 20.7474 25.0851 22.0509 24.1239 23.012C23.1628 23.9732 21.8592 24.5131 20.5 24.5131C19.1408 24.5131 17.8372 23.9732 16.8761 23.012C15.915 22.0509 15.375 20.7474 15.375 19.3881V9.13812C15.375 7.77889 15.915 6.47532 16.8761 5.5142C17.8372 4.55308 19.1408 4.01312 20.5 4.01312ZM32.4583 19.3881C32.4583 25.4185 27.9996 30.3898 22.2083 31.2269V36.4715H18.7917V31.2269C13.0004 30.3898 8.54167 25.4185 8.54167 19.3881H11.9583C11.9583 21.6535 12.8583 23.8261 14.4601 25.428C16.062 27.0299 18.2346 27.9298 20.5 27.9298C22.7654 27.9298 24.938 27.0299 26.5399 25.428C28.1417 23.8261 29.0417 21.6535 29.0417 19.3881H32.4583Z" fill="#EC6565"/>
</svg>
