<svg width="66" height="66" viewBox="0 0 66 66" fill="none" xmlns="http://www.w3.org/2000/svg">
<rect x="0.0150146" y="0.359619" width="65" height="65" rx="32.5" fill="white"/>
<path d="M48.8333 23.0142V44.3892C48.8333 47.0127 41.7448 49.1392 33 49.1392C24.2553 49.1392 17.1667 47.0127 17.1667 44.3892V23.0142" stroke="black" stroke-width="4" stroke-linecap="round" stroke-linejoin="round"/>
<path d="M48.8333 37.2642C48.8333 39.8877 41.7448 42.0142 33 42.0142C24.2553 42.0142 17.1667 39.8877 17.1667 37.2642M48.8333 30.1392C48.8333 32.7627 41.7448 34.8892 33 34.8892C24.2553 34.8892 17.1667 32.7627 17.1667 30.1392" stroke="black" stroke-width="4" stroke-linecap="round" stroke-linejoin="round"/>
<path d="M33 26.9725C41.7445 26.9725 48.8333 24.8459 48.8333 22.2225C48.8333 19.5992 41.7445 17.4725 33 17.4725C24.2555 17.4725 17.1667 19.5992 17.1667 22.2225C17.1667 24.8459 24.2555 26.9725 33 26.9725Z" stroke="black" stroke-width="4" stroke-linecap="round" stroke-linejoin="round"/>
</svg>
