<svg width="50" height="50" viewBox="0 0 50 50" fill="none" xmlns="http://www.w3.org/2000/svg">
<path d="M46.1914 3.81348C45.8718 3.49403 45.4668 3.27374 45.025 3.17914C44.5832 3.08455 44.1234 3.11967 43.7011 3.28028L4.63569 18.0664H4.62788C4.17745 18.2397 3.79148 18.5477 3.52269 18.9485C3.25389 19.3493 3.11538 19.8233 3.12606 20.3058C3.13675 20.7883 3.29611 21.2557 3.58238 21.6442C3.86865 22.0328 4.26788 22.3234 4.72554 22.4766L4.76558 22.4893L18.1738 28.2148C18.4353 28.2942 18.7131 28.3036 18.9794 28.2421C19.2457 28.1806 19.4912 28.0503 19.6914 27.8643L41.2109 7.8125C41.275 7.74838 41.3511 7.69752 41.4349 7.66281C41.5187 7.62811 41.6085 7.61025 41.6992 7.61025C41.7899 7.61025 41.8796 7.62811 41.9634 7.66281C42.0472 7.69752 42.1233 7.74838 42.1875 7.8125C42.2516 7.87662 42.3024 7.95275 42.3371 8.03653C42.3718 8.12031 42.3897 8.2101 42.3897 8.30078C42.3897 8.39147 42.3718 8.48126 42.3371 8.56504C42.3024 8.64882 42.2516 8.72494 42.1875 8.78907L22.1347 30.2988C21.9487 30.499 21.8184 30.7445 21.7569 31.0108C21.6953 31.2771 21.7047 31.5549 21.7841 31.8164L27.5117 45.2324C27.5175 45.252 27.5234 45.2695 27.5302 45.2881C27.8427 46.1934 28.6337 46.832 29.5898 46.875H29.6875C30.1701 46.8778 30.6424 46.7352 31.043 46.466C31.4436 46.1967 31.7539 45.8132 31.9335 45.3652L46.7177 6.31055C46.8806 5.88797 46.9176 5.42725 46.8242 4.98409C46.7308 4.54094 46.511 4.13435 46.1914 3.81348Z" fill="white"/>
</svg>
